<svg id="Capa_1" enable-background="new 0 0 512 512" height="512" viewBox="0 0 512 512" width="512" xmlns="http://www.w3.org/2000/svg"><g><path d="m26 343.922 30.915 100.27c5.631 18.263 16.735 33.916 32.111 45.266s33.606 17.349 52.717 17.349h228.514c19.112 0 37.341-5.999 52.718-17.349s26.48-27.003 32.111-45.266l30.915-100.27c19.683-3.586 31.179-24.373 23.695-42.98l-8.339-20.733c-7.747-19.262-26.168-31.708-46.93-31.708h-72.782c1.13-.758 2.25-1.536 3.352-2.349 15.376-11.35 26.48-27.003 32.111-45.266l30.915-100.27c19.684-3.587 31.179-24.373 23.695-42.982l-8.339-20.732c-7.747-19.262-26.168-31.709-46.93-31.709h-45.904c-4.142 0-7.5 3.358-7.5 7.5s3.358 7.5 7.5 7.5h45.904c14.605 0 27.563 8.755 33.013 22.305l8.339 20.733c4.398 10.933-3.598 22.899-15.47 22.902-.16 0-380.041 0-372.661 0-11.784-.002-19.9-11.887-15.47-22.902l8.338-20.733c5.449-13.55 18.408-22.305 33.013-22.305h244.994c4.142 0 7.5-3.358 7.5-7.5s-3.358-7.5-7.5-7.5h-244.993c-20.762 0-39.183 12.447-46.93 31.709l-8.338 20.733c-7.497 18.64 4.042 39.4 23.695 42.981l30.915 100.27c5.631 18.263 16.735 33.916 32.111 45.266 1.101.813 2.221 1.591 3.352 2.349h-72.783c-20.762 0-39.183 12.447-46.93 31.708l-8.339 20.733c-7.496 18.639 4.043 39.399 23.695 42.98zm83.227-147.456-29.392-95.333h352.331l-29.392 95.333c-9.596 31.122-37.924 52.033-70.492 52.034h-152.563c-32.568-.002-60.896-20.912-70.492-52.034zm-93.004 110.073 8.339-20.733c5.449-13.55 18.407-22.305 33.012-22.305h396.854c14.604 0 27.563 8.756 33.013 22.305l8.338 20.733c4.388 10.909-3.578 22.901-15.473 22.901h-323.935c-4.142 0-7.5 3.358-7.5 7.5s3.358 7.5 7.5 7.5h313.774l-29.392 95.333c-9.596 31.123-37.925 52.034-70.495 52.034h-228.514c-32.569 0-60.898-20.911-70.494-52.034l-29.393-95.333h84.513c4.142 0 7.5-3.358 7.5-7.5s-3.358-7.5-7.5-7.5h-94.674c-5.63 0-10.667-2.675-13.819-7.341-3.152-4.665-3.755-10.337-1.654-15.56z"/><path d="m157.93 418.375c4.142 0 7.5-3.358 7.5-7.5v-18.845c0-4.143-3.358-7.5-7.5-7.5s-7.5 3.358-7.5 7.5v18.845c-.001 4.142 3.357 7.5 7.5 7.5z"/><path d="m354.072 418.375c4.142 0 7.5-3.358 7.5-7.5v-18.845c0-4.143-3.358-7.5-7.5-7.5s-7.5 3.358-7.5 7.5v18.845c0 4.142 3.358 7.5 7.5 7.5z"/><path d="m256.001 429.593c12.077 0 23.562-5.231 31.511-14.352 2.721-3.123 2.396-7.861-.727-10.582-3.124-2.721-7.861-2.397-10.582.727-5.099 5.851-12.462 9.207-20.202 9.207-7.739 0-15.102-3.356-20.201-9.207-2.722-3.123-7.459-3.448-10.582-.727s-3.448 7.459-.727 10.582c7.948 9.121 19.433 14.352 31.51 14.352z"/><path d="m167.79 142.733c-4.142 0-7.5 3.358-7.5 7.5v16.951c0 4.142 3.358 7.5 7.5 7.5s7.5-3.358 7.5-7.5v-16.951c0-4.142-3.358-7.5-7.5-7.5z"/><path d="m344.212 174.684c4.142 0 7.5-3.358 7.5-7.5v-16.951c0-4.142-3.358-7.5-7.5-7.5s-7.5 3.358-7.5 7.5v16.951c-.001 4.142 3.357 7.5 7.5 7.5z"/><path d="m284.185 161.025c-3.123-2.721-7.861-2.397-10.582.727-4.443 5.098-10.859 8.022-17.603 8.022s-13.159-2.924-17.602-8.022c-2.721-3.123-7.459-3.448-10.582-.727s-3.448 7.459-.727 10.582c7.292 8.368 17.83 13.167 28.91 13.167s21.618-4.799 28.911-13.167c2.723-3.123 2.398-7.86-.725-10.582z"/></g></svg>