<svg id="Capa_1" enable-background="new 0 0 512 512" height="512" viewBox="0 0 512 512" width="512" xmlns="http://www.w3.org/2000/svg"><g><path d="m495.434 249.703v-10.837c0-12.958-10.542-23.5-23.5-23.5h-45.249c3.845-4.764 6.657-10.465 8.069-16.818l9.496-42.731h2.267c8.703 0 15.783-7.08 15.783-15.783v-16.566c0-10.652-6.958-19.704-16.566-22.863v-10.838c0-12.958-10.542-23.5-23.5-23.5h-273.101c-4.143 0-7.5 3.357-7.5 7.5s3.357 7.5 7.5 7.5h273.101c4.686 0 8.5 3.813 8.5 8.5v9.633h-349.467v-9.634c0-4.687 3.813-8.5 8.5-8.5h29.366c4.143 0 7.5-3.357 7.5-7.5s-3.357-7.5-7.5-7.5h-29.366c-12.958 0-23.5 10.542-23.5 23.5v10.837c-9.608 3.16-16.566 12.211-16.566 22.863v16.566c0 8.703 7.08 15.783 15.783 15.783h2.267l9.496 42.731c1.412 6.354 4.224 12.055 8.069 16.818h-45.25c-12.958 0-23.5 10.542-23.5 23.5v10.837c-9.608 3.162-16.566 12.213-16.566 22.865v16.567c0 8.703 7.08 15.783 15.783 15.783h1.614l12.345 104.932c2.407 20.458 19.756 35.885 40.354 35.885h270.304c4.143 0 7.5-3.357 7.5-7.5s-3.357-7.5-7.5-7.5h-270.303c-12.994 0-23.939-9.732-25.458-22.638l-12.139-103.178h116.6v18.483c0 21.78 17.72 39.5 39.5 39.5h134.8c21.78 0 39.5-17.72 39.5-39.5v-18.483h116.6l-12.139 103.178c-1.52 12.906-12.464 22.639-25.458 22.639h-71.504c-4.143 0-7.5 3.357-7.5 7.5s3.357 7.5 7.5 7.5h71.504c20.599 0 37.947-15.427 40.355-35.886l12.345-104.931h1.614c8.703 0 15.783-7.08 15.783-15.783v-16.567c0-10.653-6.958-19.704-16.566-22.864zm-430.734-109.67v-16.566c0-4.999 4.067-9.066 9.066-9.066h364.467c4.999 0 9.066 4.067 9.066 9.066v16.566c0 .432-.352.783-.783.783h-381.033c-.431 0-.783-.351-.783-.783zm27.189 55.261-8.773-39.477h345.768l-8.772 39.477c-2.627 11.818-12.917 20.072-25.023 20.072h-278.177c-12.106 0-22.396-8.254-25.023-20.072zm-60.323 43.572c0-4.686 3.814-8.5 8.5-8.5h431.867c4.686 0 8.5 3.814 8.5 8.5v9.634h-448.867zm-15.783 51.051c-.432 0-.783-.352-.783-.783v-16.567c0-4.999 4.067-9.066 9.066-9.066h125.034v26.417h-133.317zm307.617 57.983h-134.8c-13.51 0-24.5-10.99-24.5-24.5v-59.9h183.8v33.898c0 .007-.001.013-.001.019s.001.013.001.019v25.964c0 13.51-10.99 24.5-24.5 24.5zm173.6-58.766c0 .432-.352.783-.783.783h-133.317v-26.417h125.033c4.999 0 9.066 4.067 9.066 9.066v16.568z"/><path d="m289.134 281.634h-66.268c-13.27 0-24.066 10.796-24.066 24.066s10.796 24.066 24.066 24.066h66.268c13.271 0 24.066-10.796 24.066-24.066s-10.796-24.066-24.066-24.066zm0 33.133h-66.268c-4.999 0-9.066-4.067-9.066-9.066s4.067-9.066 9.066-9.066h66.268c4.999 0 9.066 4.067 9.066 9.066s-4.067 9.066-9.066 9.066z"/></g></svg>