<svg width="121" height="121" viewBox="0 0 121 121" fill="none" xmlns="http://www.w3.org/2000/svg">
<g clip-path="url(#clip0)">
<path d="M54.67 21.8143H8.21823V52.7819H54.67V21.8143Z" fill="#FFE4CC"/>
<path d="M114.67 12.1367H6.28277C3.08155 12.1367 0.476196 14.7421 0.476196 17.9433V89.556C0.476196 92.7572 3.08155 95.3626 6.28277 95.3626H39.1858V105.04H29.5082V108.911H91.4438V105.04H81.7665V95.3626H114.67C117.871 95.3626 120.476 92.7572 120.476 89.556V17.9433C120.476 14.7421 117.871 12.1367 114.67 12.1367ZM6.28277 16.0078H114.67C115.739 16.0078 116.606 16.8768 116.606 17.9433V77.9433H4.34724V17.9433C4.34724 16.8768 5.2142 16.0078 6.28277 16.0078ZM77.8955 105.04H43.0569V95.3626H77.8955V105.04ZM114.67 91.4915H6.28277C5.2142 91.4915 4.34724 90.6225 4.34724 89.556V81.8143H116.605V89.5564C116.605 90.6225 115.738 91.4915 114.67 91.4915Z" fill="#333333"/>
<path d="M68.4447 58.5885H74.0249V58.9445C71.7776 59.7457 70.1539 61.8751 70.1539 64.3951C70.1539 67.5963 72.7592 70.2016 75.9604 70.2016C78.4804 70.2016 80.6094 68.5778 81.4109 66.3306H97.6089C98.41 68.5778 100.539 70.2016 103.059 70.2016C106.261 70.2016 108.866 67.5963 108.866 64.3951C108.866 61.8751 107.242 59.7461 104.995 58.9445V58.5885H110.617L112.94 35.3626H72.089V39.2337H108.66L107.111 54.7174H71.8622L67.9911 23.7499H60.4758V27.6209H64.5737L68.4447 58.5885ZM97.6064 62.4595H81.4085C80.824 60.8203 79.5331 59.529 77.8935 58.9445V58.5885H101.119V58.9445C99.4822 59.529 98.1909 60.8203 97.6064 62.4595ZM75.96 66.3306C74.8915 66.3306 74.0245 65.4616 74.0245 64.3951C74.0245 63.3285 74.8915 62.4595 75.96 62.4595C77.0286 62.4595 77.8955 63.3285 77.8955 64.3951C77.8955 65.4616 77.0286 66.3306 75.96 66.3306ZM103.057 66.3306C101.988 66.3306 101.121 65.4616 101.121 64.3951C101.121 63.3285 101.988 62.4595 103.057 62.4595C104.126 62.4595 104.992 63.3285 104.992 64.3951C104.992 65.4616 104.125 66.3306 103.057 66.3306Z" fill="#333333"/>
<path d="M104.992 45.0402H74.0245V48.9112H104.992V45.0402Z" fill="#333333"/>
<path d="M54.67 58.5885H8.21823V62.4595H54.67V58.5885Z" fill="#333333"/>
<path d="M54.67 68.2661H8.21823V72.1372H54.67V68.2661Z" fill="#333333"/>
</g>
<defs>
<clipPath id="clip0">
<rect width="120" height="120" fill="white" transform="translate(0.476196 0.523926)"/>
</clipPath>
</defs>
</svg>
