<svg width="0" height="0" class="hidden">

  <symbol xmlns="http://www.w3.org/2000/svg" viewBox="0 0 448 448" id="add">
    <path d="M408 184H272a8 8 0 01-8-8V40c0-22.09-17.91-40-40-40s-40 17.91-40 40v136a8 8 0 01-8 8H40c-22.09 0-40 17.91-40 40s17.91 40 40 40h136a8 8 0 018 8v136c0 22.09 17.91 40 40 40s40-17.91 40-40V272a8 8 0 018-8h136c22.09 0 40-17.91 40-40s-17.91-40-40-40zm0 0"></path>
  </symbol>

  <symbol xmlns="http://www.w3.org/2000/svg" viewBox="0 0 512 512" id="containers">
    <path d="M26 343.922l30.915 100.27c5.631 18.263 16.735 33.916 32.111 45.266s33.606 17.349 52.717 17.349h228.514c19.112 0 37.341-5.999 52.718-17.349s26.48-27.003 32.111-45.266l30.915-100.27c19.683-3.586 31.179-24.373 23.695-42.98l-8.339-20.733c-7.747-19.262-26.168-31.708-46.93-31.708h-72.782a91.396 91.396 0 003.352-2.349c15.376-11.35 26.48-27.003 32.111-45.266l30.915-100.27c19.684-3.587 31.179-24.373 23.695-42.982l-8.339-20.732c-7.747-19.262-26.168-31.709-46.93-31.709h-45.904a7.5 7.5 0 000 15h45.904c14.605 0 27.563 8.755 33.013 22.305l8.339 20.733c4.398 10.933-3.598 22.899-15.47 22.902H69.67c-11.784-.002-19.9-11.887-15.47-22.902l8.338-20.733c5.449-13.55 18.408-22.305 33.013-22.305h244.994a7.5 7.5 0 000-15H95.552c-20.762 0-39.183 12.447-46.93 31.709l-8.338 20.733c-7.497 18.64 4.042 39.4 23.695 42.981l30.915 100.27c5.631 18.263 16.735 33.916 32.111 45.266a89.712 89.712 0 003.352 2.349H57.574c-20.762 0-39.183 12.447-46.93 31.708l-8.339 20.733c-7.496 18.639 4.043 39.399 23.695 42.98zm83.227-147.456l-29.392-95.333h352.331l-29.392 95.333c-9.596 31.122-37.924 52.033-70.492 52.034H179.719c-32.568-.002-60.896-20.912-70.492-52.034zM16.223 306.539l8.339-20.733c5.449-13.55 18.407-22.305 33.012-22.305h396.854c14.604 0 27.563 8.756 33.013 22.305l8.338 20.733c4.388 10.909-3.578 22.901-15.473 22.901H156.371a7.5 7.5 0 000 15h313.774l-29.392 95.333c-9.596 31.123-37.925 52.034-70.495 52.034H141.744c-32.569 0-60.898-20.911-70.494-52.034L41.857 344.44h84.513a7.5 7.5 0 000-15H31.696c-5.63 0-10.667-2.675-13.819-7.341-3.152-4.665-3.755-10.337-1.654-15.56z"></path>
    <path d="M157.93 418.375a7.5 7.5 0 007.5-7.5V392.03a7.5 7.5 0 00-15 0v18.845a7.499 7.499 0 007.5 7.5zm196.142 0a7.5 7.5 0 007.5-7.5V392.03a7.5 7.5 0 00-15 0v18.845a7.5 7.5 0 007.5 7.5zm-98.071 11.218a41.795 41.795 0 0031.511-14.352 7.5 7.5 0 00-11.309-9.855 26.797 26.797 0 01-20.202 9.207 26.797 26.797 0 01-20.201-9.207 7.5 7.5 0 00-11.309 9.855 41.791 41.791 0 0031.51 14.352zm-88.211-286.86a7.5 7.5 0 00-7.5 7.5v16.951a7.5 7.5 0 0015 0v-16.951a7.5 7.5 0 00-7.5-7.5zm176.422 31.951a7.5 7.5 0 007.5-7.5v-16.951a7.5 7.5 0 00-15 0v16.951a7.499 7.499 0 007.5 7.5zm-60.027-13.659a7.5 7.5 0 00-10.582.727c-4.443 5.098-10.859 8.022-17.603 8.022s-13.159-2.924-17.602-8.022a7.5 7.5 0 00-11.309 9.855c7.292 8.368 17.83 13.167 28.91 13.167s21.618-4.799 28.911-13.167a7.499 7.499 0 00-.725-10.582z"></path>
  </symbol>

  <symbol  xmlns="http://www.w3.org/2000/svg" viewBox="0 0 416 416" id="credit-card">
    <g filter="url(#filter0_d)">
      <path d="M8.6 32.261h109.59c43.907 0 79.5 35.594 79.5 79.5v85.829H88.1c-43.907 0-79.5-35.593-79.5-79.5V32.261z" stroke="#894242" stroke-opacity=".2"></path>
    </g>
    <g filter="url(#filter1_d)">
      <path d="M217.699 217.6H327.29c43.907 0 79.5 35.593 79.5 79.5v85.829H297.2c-43.907 0-79.501-35.594-79.501-79.5V217.6z" stroke="#894242" stroke-opacity=".2"></path>
    </g>
    <g filter="url(#filter2_d)">
      <path d="M217.699 88c0-43.907 35.594-79.5 79.5-79.5h85.83v109.59c0 43.907-35.594 79.5-79.5 79.5h-85.83V88z" stroke="#894242" stroke-opacity=".2"></path>
    </g>
    <g filter="url(#filter3_d)">
      <path d="M32.361 297.1c0-43.907 35.594-79.5 79.5-79.5h85.829v109.59c0 43.907-35.593 79.5-79.5 79.5H32.361V297.1z" stroke="#894242" stroke-opacity=".2"></path>
    </g>
    <defs>
      <filter id="filter0_d" x=".1" y="23.761" width="206.09" height="182.329" filterUnits="userSpaceOnUse" color-interpolation-filters="sRGB">
        <feFlood flood-opacity="0" result="BackgroundImageFix"></feFlood>
        <feColorMatrix in="SourceAlpha" values="0 0 0 0 0 0 0 0 0 0 0 0 0 0 0 0 0 0 127 0"></feColorMatrix>
        <feOffset></feOffset>
        <feGaussianBlur stdDeviation="4"></feGaussianBlur>
        <feColorMatrix values="0 0 0 0 0 0 0 0 0 0 0 0 0 0 0 0 0 0 0.15 0"></feColorMatrix>
        <feBlend in2="BackgroundImageFix" result="effect1_dropShadow"></feBlend>
        <feBlend in="SourceGraphic" in2="effect1_dropShadow" result="shape"></feBlend>
      </filter>
      <filter id="filter1_d" x="209.199" y="209.1" width="206.09" height="182.329" filterUnits="userSpaceOnUse" color-interpolation-filters="sRGB">
        <feFlood flood-opacity="0" result="BackgroundImageFix"></feFlood>
        <feColorMatrix in="SourceAlpha" values="0 0 0 0 0 0 0 0 0 0 0 0 0 0 0 0 0 0 127 0"></feColorMatrix>
        <feOffset></feOffset>
        <feGaussianBlur stdDeviation="4"></feGaussianBlur>
        <feColorMatrix values="0 0 0 0 0 0 0 0 0 0 0 0 0 0 0 0 0 0 0.15 0"></feColorMatrix>
        <feBlend in2="BackgroundImageFix" result="effect1_dropShadow"></feBlend>
        <feBlend in="SourceGraphic" in2="effect1_dropShadow" result="shape"></feBlend>
      </filter>
      <filter id="filter2_d" x="209.199" y="0" width="182.329" height="206.09" filterUnits="userSpaceOnUse" color-interpolation-filters="sRGB">
        <feFlood flood-opacity="0" result="BackgroundImageFix"></feFlood>
        <feColorMatrix in="SourceAlpha" values="0 0 0 0 0 0 0 0 0 0 0 0 0 0 0 0 0 0 127 0"></feColorMatrix>
        <feOffset></feOffset>
        <feGaussianBlur stdDeviation="4"></feGaussianBlur>
        <feColorMatrix values="0 0 0 0 0 0 0 0 0 0 0 0 0 0 0 0 0 0 0.15 0"></feColorMatrix>
        <feBlend in2="BackgroundImageFix" result="effect1_dropShadow"></feBlend>
        <feBlend in="SourceGraphic" in2="effect1_dropShadow" result="shape"></feBlend>
      </filter>
      <filter id="filter3_d" x="23.861" y="209.1" width="182.329" height="206.09" filterUnits="userSpaceOnUse" color-interpolation-filters="sRGB">
        <feFlood flood-opacity="0" result="BackgroundImageFix"></feFlood>
        <feColorMatrix in="SourceAlpha" values="0 0 0 0 0 0 0 0 0 0 0 0 0 0 0 0 0 0 127 0"></feColorMatrix>
        <feOffset></feOffset>
        <feGaussianBlur stdDeviation="4"></feGaussianBlur>
        <feColorMatrix values="0 0 0 0 0 0 0 0 0 0 0 0 0 0 0 0 0 0 0.15 0"></feColorMatrix>
        <feBlend in2="BackgroundImageFix" result="effect1_dropShadow"></feBlend>
        <feBlend in="SourceGraphic" in2="effect1_dropShadow" result="shape"></feBlend>
      </filter>
    </defs>
  </symbol>

  <symbol xmlns="http://www.w3.org/2000/svg" viewBox="0 0 478.984 478.984" id="fly">
    <path d="M344 319.492h48v16h-48zm-64 0h48v16h-48zm-64 0h48v16h-48z"></path>
    <path d="M471.896 165.916L313.6 7.596a23.897 23.897 0 00-17.008-7.08h-.072a23.67 23.67 0 00-16.872 7.08l-167.92 167.896H24c-13.255 0-24 10.745-24 24v224c0 13.255 10.745 24 24 24h118.528l23.872 23.896a23.897 23.897 0 0017.008 7.08h.064a23.681 23.681 0 0016.88-7.08l23.92-23.896H408c13.255 0 24-10.745 24-24V239.764l39.856-39.856a23.723 23.723 0 007.128-16.912 23.907 23.907 0 00-7.088-17.08zM370.128 86.772l-88.72 88.72h-67.936L336.16 52.804l33.968 33.968zm-79.152-67.896a7.888 7.888 0 0111.288 0l22.584 22.616-134.008 134h-56.488L290.976 18.876zM189.024 460.108a7.783 7.783 0 01-5.6 2.4 8 8 0 01-5.696-2.4l-12.568-12.616h36.488l-12.624 12.616zM416 423.492a8 8 0 01-8 8H24a8 8 0 01-8-8v-112h400v112zm0-128H16v-48h400v48zm0-64H16v-32a8 8 0 018-8h384a8 8 0 018 8v32zm44.584-42.936L432 217.14v-17.648c0-13.255-10.745-24-24-24H304l77.408-77.408 79.144 79.144a7.997 7.997 0 012.4 5.72 7.843 7.843 0 01-2.368 5.608z"></path>
    <path d="M76.728 415.708A31.984 31.984 0 0080 412.436c10.579 12.322 28.756 14.663 42.112 5.424A32.529 32.529 0 00136 391.492c0-17.673-14.327-32-32-32a24.263 24.263 0 00-4.736.4l-.208.056h-.232A31.588 31.588 0 0080 370.572c-11.56-13.368-31.769-14.833-45.136-3.272-13.368 11.56-14.833 31.769-3.272 45.136 11.56 13.368 31.768 14.833 45.136 3.272zm25.248-40.048a9.675 9.675 0 012.024-.168c8.837 0 16 7.163 16 16a15.689 15.689 0 01-3.144 9.384c-.288.392-.512.8-.84 1.208-.056.064-.136.104-.2.168a15.937 15.937 0 01-11.816 5.24c-8.835-.151-15.876-7.435-15.725-16.27a16 16 0 0113.701-15.562zM56 375.492c8.837 0 16 7.163 16 16s-7.163 16-16 16-16-7.163-16-16 7.163-16 16-16z"></path>
  </symbol>

  <symbol xmlns="http://www.w3.org/2000/svg" viewBox="0 0 121 121" id="food-container">
    <g clip-path="url(#clip0)">
      <path d="M54.67 21.814H8.218v30.968H54.67V21.814z" fill="#FFE4CC"></path>
      <path d="M114.67 12.137H6.283a5.814 5.814 0 00-5.807 5.806v71.613a5.814 5.814 0 005.807 5.807h32.903v9.677h-9.678v3.871h61.936v-3.871h-9.678v-9.677h32.904a5.814 5.814 0 005.806-5.807V17.943a5.814 5.814 0 00-5.806-5.806zM6.283 16.007H114.67c1.069 0 1.936.87 1.936 1.936v60H4.347v-60c0-1.066.867-1.935 1.936-1.935zm71.612 89.033H43.057v-9.677h34.838v9.677zm36.775-13.549H6.283a1.937 1.937 0 01-1.936-1.935v-7.742h112.258v7.742a1.937 1.937 0 01-1.935 1.936z" ></path>
      <path d="M68.445 58.589h5.58v.355c-2.247.802-3.871 2.931-3.871 5.451a5.814 5.814 0 005.806 5.807c2.52 0 4.65-1.624 5.45-3.871h16.2c.801 2.247 2.93 3.87 5.45 3.87a5.814 5.814 0 005.807-5.806c0-2.52-1.624-4.649-3.871-5.45v-.356h5.622l2.323-23.226H72.089v3.87h36.571l-1.549 15.484H71.862l-3.87-30.967h-7.516v3.87h4.098l3.87 30.969zm29.161 3.87H81.41a5.8 5.8 0 00-3.516-3.515v-.355h23.226v.355a5.804 5.804 0 00-3.513 3.515zM75.96 66.332a1.937 1.937 0 01-1.935-1.936 1.937 1.937 0 013.871 0 1.937 1.937 0 01-1.936 1.936zm27.097 0a1.937 1.937 0 01-1.936-1.936 1.937 1.937 0 111.936 1.936z" ></path>
      <path d="M104.992 45.04H74.024v3.871h30.968v-3.87zM54.67 58.589H8.218v3.87H54.67v-3.87zm0 9.677H8.218v3.871H54.67v-3.87z" fill="#333"></path>
    </g>
    <defs>
      <clipPath id="clip0">
        <path  transform="translate(.476 .524)" d="M0 0h120v120H0z"></path>
      </clipPath>
    </defs>
  </symbol>

  <symbol xmlns="http://www.w3.org/2000/svg" viewBox="0 0 512 512" id="minus">
    <path d="M511.25 169.527l-.344-1.922c-.062-.297-.094-.594-.156-.883l-35.906-86.719V37.34H36.562v42.664L1.25 166.715c-.078.344-.125.688-.188 1.023l-.328 1.789A61.742 61.742 0 000 179.051c0 23.188 12.938 43.344 32 53.648V474.66h448V232.699c19.047-10.305 32-30.461 32-53.648 0-3.242-.266-6.422-.75-9.524zm-24.109-4.187h-78.375l-9.422-63.336h62l25.797 63.336zM57.906 58.668h395.609v21.336H57.906V58.668zm332.469 128l1.156 7.742-6.312 8.398c-7.562 10.078-19.125 15.859-31.703 15.859s-24.141-5.781-31.703-15.859l-6.438-8.578-.375-7.562h75.375zm-76.422-21.328l-3.109-63.336h66.922l9.438 63.336h-73.251zm-20.312 21.327l.375 7.735-6.328 8.406c-7.562 10.078-19.125 15.859-31.688 15.859-12.594 0-24.141-5.781-31.719-15.859l-6.469-8.633.375-7.508h75.454zm-74.375-21.327l3.203-63.336H289.5l3.094 63.336h-73.328zm-94.36 0l9.312-63.336h66.906l-3.219 63.336h-72.999zm71.906 21.328l-.391 7.82-6.25 8.32c-7.578 10.078-19.125 15.859-31.703 15.859s-24.125-5.781-31.703-15.859l-6.156-8.195 1.172-7.945h75.031zM50.641 102.004h62.016l-9.312 63.336h-78.5l25.796-63.336zm-28.579 84.664h78.156l-1.672 8.289-5.891 7.852c-7.578 10.078-19.125 15.859-31.719 15.859-19.233 0-35.311-13.781-38.874-32zM416 453.348h-85.344V378.66h10.672c5.891 0 10.672-4.766 10.672-10.656s-4.781-10.656-10.672-10.656h-10.672V282.66H416v170.688zm42.658 0h-21.33v-192h-128v192h-256v-213.82c2.484.312 5.047.477 7.609.477 19.938 0 37.656-9.578 48.766-24.383 11.125 14.805 28.828 24.383 48.766 24.383s37.641-9.578 48.766-24.383c11.109 14.805 28.828 24.383 48.766 24.383s37.625-9.578 48.75-24.383c11.125 14.805 28.828 24.383 48.766 24.383s37.641-9.578 48.766-24.383c11.125 14.805 28.812 24.383 48.75 24.383a61.19 61.19 0 007.625-.477v213.82zm-7.627-234.68c-12.562 0-24.125-5.781-31.688-15.859l-6.203-8.234-1.203-7.906h77.969c-3.562 18.218-19.625 31.999-38.875 31.999z"></path>
    <path d="M74.656 261.348V410.66H288V261.348H74.656zm192 128H96V282.66h170.656v106.688z"></path>
    <path d="M245.25 336.004a10.59 10.59 0 00-7.547 3.125l-21.328 21.344a10.575 10.575 0 00-3.125 7.531c0 5.891 4.781 10.656 10.656 10.656a10.59 10.59 0 007.547-3.125l21.328-21.312a10.648 10.648 0 003.125-7.562c0-5.876-4.765-10.657-10.656-10.657zm0-42.656a10.59 10.59 0 00-7.547 3.125l-64 63.984a10.678 10.678 0 00-3.125 7.547c0 5.891 4.781 10.656 10.672 10.656 2.938 0 5.609-1.188 7.531-3.125l64-63.984a10.611 10.611 0 003.125-7.547 10.649 10.649 0 00-10.656-10.656z"></path>
  </symbol>

  <symbol viewBox="0 0 0 0" id="shop_1"></symbol>

  <symbol xmlns="http://www.w3.org/2000/svg" viewBox="0 0 512 512" id="shop">
    <path d="M495.434 249.703v-10.837c0-12.958-10.542-23.5-23.5-23.5h-45.249c3.845-4.764 6.657-10.465 8.069-16.818l9.496-42.731h2.267c8.703 0 15.783-7.08 15.783-15.783v-16.566c0-10.652-6.958-19.704-16.566-22.863V89.767c0-12.958-10.542-23.5-23.5-23.5H149.133c-4.143 0-7.5 3.357-7.5 7.5s3.357 7.5 7.5 7.5h273.101c4.686 0 8.5 3.813 8.5 8.5V99.4H81.267v-9.634c0-4.687 3.813-8.5 8.5-8.5h29.366c4.143 0 7.5-3.357 7.5-7.5s-3.357-7.5-7.5-7.5H89.767c-12.958 0-23.5 10.542-23.5 23.5v10.837c-9.608 3.16-16.566 12.211-16.566 22.863v16.566c0 8.703 7.08 15.783 15.783 15.783h2.267l9.496 42.731c1.412 6.354 4.224 12.055 8.069 16.818h-45.25c-12.958 0-23.5 10.542-23.5 23.5v10.837C6.958 252.863 0 261.914 0 272.566v16.567c0 8.703 7.08 15.783 15.783 15.783h1.614l12.345 104.932c2.407 20.458 19.756 35.885 40.354 35.885H340.4c4.143 0 7.5-3.357 7.5-7.5s-3.357-7.5-7.5-7.5H70.097c-12.994 0-23.939-9.732-25.458-22.638L32.5 304.917h116.6V323.4c0 21.78 17.72 39.5 39.5 39.5h134.8c21.78 0 39.5-17.72 39.5-39.5v-18.483h116.6l-12.139 103.178c-1.52 12.906-12.464 22.639-25.458 22.639h-71.504c-4.143 0-7.5 3.357-7.5 7.5s3.357 7.5 7.5 7.5h71.504c20.599 0 37.947-15.427 40.355-35.886l12.345-104.931h1.614c8.703 0 15.783-7.08 15.783-15.783v-16.567c0-10.653-6.958-19.704-16.566-22.864zM64.7 140.033v-16.566c0-4.999 4.067-9.066 9.066-9.066h364.467c4.999 0 9.066 4.067 9.066 9.066v16.566a.784.784 0 01-.783.783H65.483a.784.784 0 01-.783-.783zm27.189 55.261l-8.773-39.477h345.768l-8.772 39.477c-2.627 11.818-12.917 20.072-25.023 20.072H116.912c-12.106 0-22.396-8.254-25.023-20.072zm-60.323 43.572c0-4.686 3.814-8.5 8.5-8.5h431.867c4.686 0 8.5 3.814 8.5 8.5v9.634H31.566zm-15.783 51.051a.784.784 0 01-.783-.783v-16.567c0-4.999 4.067-9.066 9.066-9.066H149.1v26.417H15.783zM323.4 347.9H188.6c-13.51 0-24.5-10.99-24.5-24.5v-59.9h183.8v33.898l-.001.019.001.019V323.4c0 13.51-10.99 24.5-24.5 24.5zM497 289.134a.784.784 0 01-.783.783H362.9V263.5h125.033c4.999 0 9.066 4.067 9.066 9.066v16.568z"></path>
    <path d="M289.134 281.634h-66.268c-13.27 0-24.066 10.796-24.066 24.066s10.796 24.066 24.066 24.066h66.268c13.271 0 24.066-10.796 24.066-24.066s-10.796-24.066-24.066-24.066zm0 33.133h-66.268c-4.999 0-9.066-4.067-9.066-9.066s4.067-9.066 9.066-9.066h66.268c4.999 0 9.066 4.067 9.066 9.066s-4.067 9.066-9.066 9.066z"></path>
  </symbol>

  <symbol xmlns="http://www.w3.org/2000/svg" viewBox="0 0 18 17" id="V1">
    <path fill-rule="evenodd" clip-rule="evenodd" d="M12.6 0C11.217 0 9.955.53 9 1.404A5.318 5.318 0 005.4 0C2.418 0 0 2.468 0 5.514c0 4.444 4.48 8.74 8.62 11.245a.78.78 0 00.762-.001C13.495 14.243 18 9.958 18 5.514 18 2.468 15.582 0 12.6 0zM9.005 14.825C4.555 11.855 1.8 8.385 1.8 5.514c0-2.03 1.612-3.676 3.6-3.676.9 0 1.743.336 2.4.935l.866.792a.502.502 0 00.668 0l.866-.792c.657-.6 1.5-.935 2.4-.935 1.988 0 3.6 1.645 3.6 3.676 0 2.944-2.744 6.34-7.195 9.311z"></path>
  </symbol>

  <symbol xmlns="http://www.w3.org/2000/svg" viewBox="0 0 18 18" id="Vector">
    <path d="M4 4.5h13c.037 0 1 .001 1 1l-1 6c-.089.491-.43 1-.936 1H6l.095 1.299c.07.33.362.701.696.701h8.816c.037 0 .074.005.109.015A1.504 1.504 0 0117 16c0 .827-.673 1.5-1.5 1.5a1.502 1.502 0 01-1.414-2H7.914a1.502 1.502 0 01-1.414 2 1.498 1.498 0 01-.918-2.686 2.102 2.102 0 01-.382-.823l-.391-1.864L2 1.5H.458C.205 1.5 0 1.218 0 .963A.46.46 0 01.458.5h2.104c.21 0 .394.145.444.352L4 4.5z"></path>
  </symbol>

  <symbol xmlns="http://www.w3.org/2000/svg" viewBox="0 0 512 512" id="x-mark">
    <path d="M256 512C114.84 512 0 397.16 0 256S114.84 0 256 0s256 114.84 256 256-114.84 256-256 256zm0-475.43C135.008 36.57 36.57 135.008 36.57 256S135.008 475.43 256 475.43 475.43 376.992 475.43 256 376.992 36.57 256 36.57zm0 0"></path>
    <path d="M347.43 365.715c-4.68 0-9.36-1.785-12.93-5.36L151.645 177.5c-7.145-7.145-7.145-18.715 0-25.855 7.14-7.141 18.714-7.145 25.855 0L360.355 334.5c7.145 7.145 7.145 18.715 0 25.855a18.207 18.207 0 01-12.925 5.36zm0 0"></path>
    <path d="M164.57 365.715c-4.68 0-9.355-1.785-12.925-5.36-7.145-7.14-7.145-18.714 0-25.855L334.5 151.645c7.145-7.145 18.715-7.145 25.855 0 7.141 7.14 7.145 18.714 0 25.855L177.5 360.355a18.216 18.216 0 01-12.93 5.36zm0 0"></path>
  </symbol>
</svg>